<?xml version="1.0" encoding="UTF-8" standalone="no"?>
<!DOCTYPE svg PUBLIC "-//W3C//DTD SVG 1.1//EN"
 "http://www.w3.org/Graphics/SVG/1.1/DTD/svg11.dtd">
<!-- Generated by graphviz version 2.43.0 (0)
 -->
<!-- Title: BankAlPy_ERD Pages: 1 -->
<svg width="771pt" height="779pt"
 viewBox="0.00 0.00 771.00 779.00" xmlns="http://www.w3.org/2000/svg" xmlns:xlink="http://www.w3.org/1999/xlink">
<g id="graph0" class="graph" transform="scale(1 1) rotate(0) translate(4 775)">
<title>BankAlPy_ERD</title>
<polygon fill="white" stroke="transparent" points="-4,4 -4,-775 767,-775 767,4 -4,4"/>
<!-- Divisa -->
<g id="node1" class="node">
<title>Divisa</title>
<polygon fill="lightgrey" stroke="transparent" points="494.5,-570 494.5,-591 584.5,-591 584.5,-570 494.5,-570"/>
<polygon fill="none" stroke="black" points="494.5,-570 494.5,-591 584.5,-591 584.5,-570 494.5,-570"/>
<text text-anchor="start" x="515" y="-577.8" font-family="Times,serif" font-weight="bold" font-size="14.00">Divisa</text>
<polygon fill="none" stroke="black" points="494.5,-549 494.5,-570 584.5,-570 584.5,-549 494.5,-549"/>
<text text-anchor="start" x="497.5" y="-555.8" font-family="Times,serif" font-size="14.00">IdDivisa PK</text>
<polygon fill="none" stroke="black" points="494.5,-528 494.5,-549 584.5,-549 584.5,-528 494.5,-528"/>
<text text-anchor="start" x="497.5" y="-534.8" font-family="Times,serif" font-size="14.00">Divisa</text>
<polygon fill="none" stroke="black" points="493.5,-527.5 493.5,-592.5 585.5,-592.5 585.5,-527.5 493.5,-527.5"/>
</g>
<!-- TipoCuenta -->
<g id="node2" class="node">
<title>TipoCuenta</title>
<polygon fill="lightgrey" stroke="transparent" points="258.5,-581 258.5,-602 385.5,-602 385.5,-581 258.5,-581"/>
<polygon fill="none" stroke="black" points="258.5,-581 258.5,-602 385.5,-602 385.5,-581 258.5,-581"/>
<text text-anchor="start" x="276" y="-588.8" font-family="Times,serif" font-weight="bold" font-size="14.00">TipoCuenta</text>
<polygon fill="none" stroke="black" points="258.5,-560 258.5,-581 385.5,-581 385.5,-560 258.5,-560"/>
<text text-anchor="start" x="261.5" y="-566.8" font-family="Times,serif" font-size="14.00">IdTipoCuenta PK</text>
<polygon fill="none" stroke="black" points="258.5,-539 258.5,-560 385.5,-560 385.5,-539 258.5,-539"/>
<text text-anchor="start" x="261.5" y="-545.8" font-family="Times,serif" font-size="14.00">Tipo</text>
<polygon fill="none" stroke="black" points="258.5,-518 258.5,-539 385.5,-539 385.5,-518 258.5,-518"/>
<text text-anchor="start" x="261.5" y="-524.8" font-family="Times,serif" font-size="14.00">FkDivisa FK</text>
<polygon fill="none" stroke="black" points="257,-517 257,-603 386,-603 386,-517 257,-517"/>
</g>
<!-- TipoCuenta&#45;&gt;Divisa -->
<g id="edge1" class="edge">
<title>TipoCuenta&#45;&gt;Divisa</title>
<path fill="none" stroke="black" d="M404.37,-560C427.74,-560 452.84,-560 474.94,-560"/>
<polygon fill="black" stroke="black" points="404.12,-560 394.12,-555.5 399.12,-560 394.12,-560 394.12,-560 394.12,-560 399.12,-560 394.12,-564.5 404.12,-560 404.12,-560"/>
<polygon fill="black" stroke="black" points="475.19,-560 485.19,-564.5 480.19,-560 485.19,-560 485.19,-560 485.19,-560 480.19,-560 485.19,-555.5 475.19,-560 475.19,-560"/>
<text text-anchor="middle" x="471.19" y="-548.8" font-family="Times,serif" font-size="14.00">1..1</text>
<text text-anchor="middle" x="406.62" y="-548.8" font-family="Times,serif" font-size="14.00">1..*</text>
</g>
<!-- Cuenta -->
<g id="node3" class="node">
<title>Cuenta</title>
<polygon fill="lightgrey" stroke="transparent" points="264.5,-724 264.5,-745 379.5,-745 379.5,-724 264.5,-724"/>
<polygon fill="none" stroke="black" points="264.5,-724 264.5,-745 379.5,-745 379.5,-724 264.5,-724"/>
<text text-anchor="start" x="293" y="-731.8" font-family="Times,serif" font-weight="bold" font-size="14.00">Cuenta</text>
<polygon fill="none" stroke="black" points="264.5,-703 264.5,-724 379.5,-724 379.5,-703 264.5,-703"/>
<text text-anchor="start" x="267.5" y="-709.8" font-family="Times,serif" font-size="14.00">IdCuenta PK</text>
<polygon fill="none" stroke="black" points="264.5,-682 264.5,-703 379.5,-703 379.5,-682 264.5,-682"/>
<text text-anchor="start" x="267.5" y="-688.8" font-family="Times,serif" font-size="14.00">NumeroCuenta</text>
<polygon fill="none" stroke="black" points="264.5,-661 264.5,-682 379.5,-682 379.5,-661 264.5,-661"/>
<text text-anchor="start" x="267.5" y="-667.8" font-family="Times,serif" font-size="14.00">FechaObertura</text>
<polygon fill="none" stroke="black" points="264.5,-640 264.5,-661 379.5,-661 379.5,-640 264.5,-640"/>
<text text-anchor="start" x="267.5" y="-646.8" font-family="Times,serif" font-size="14.00">Saldo</text>
<polygon fill="none" stroke="black" points="263,-639.5 263,-746.5 380,-746.5 380,-639.5 263,-639.5"/>
</g>
<!-- Cliente -->
<g id="node4" class="node">
<title>Cliente</title>
<polygon fill="lightgrey" stroke="transparent" points="256.5,-468 256.5,-489 386.5,-489 386.5,-468 256.5,-468"/>
<polygon fill="none" stroke="black" points="256.5,-468 256.5,-489 386.5,-489 386.5,-468 256.5,-468"/>
<text text-anchor="start" x="292.5" y="-475.8" font-family="Times,serif" font-weight="bold" font-size="14.00">Cliente</text>
<polygon fill="none" stroke="black" points="256.5,-447 256.5,-468 386.5,-468 386.5,-447 256.5,-447"/>
<text text-anchor="start" x="259.5" y="-453.8" font-family="Times,serif" font-size="14.00">IdCliente PK</text>
<polygon fill="none" stroke="black" points="256.5,-426 256.5,-447 386.5,-447 386.5,-426 256.5,-426"/>
<text text-anchor="start" x="259.5" y="-432.8" font-family="Times,serif" font-size="14.00">Nombre</text>
<polygon fill="none" stroke="black" points="256.5,-405 256.5,-426 386.5,-426 386.5,-405 256.5,-405"/>
<text text-anchor="start" x="259.5" y="-411.8" font-family="Times,serif" font-size="14.00">Apellido1</text>
<polygon fill="none" stroke="black" points="256.5,-384 256.5,-405 386.5,-405 386.5,-384 256.5,-384"/>
<text text-anchor="start" x="259.5" y="-390.8" font-family="Times,serif" font-size="14.00">Apellido2</text>
<polygon fill="none" stroke="black" points="256.5,-363 256.5,-384 386.5,-384 386.5,-363 256.5,-363"/>
<text text-anchor="start" x="259.5" y="-369.8" font-family="Times,serif" font-size="14.00">NIF</text>
<polygon fill="none" stroke="black" points="256.5,-342 256.5,-363 386.5,-363 386.5,-342 256.5,-342"/>
<text text-anchor="start" x="259.5" y="-348.8" font-family="Times,serif" font-size="14.00">FechaNacimiento</text>
<polygon fill="none" stroke="black" points="255.5,-341.5 255.5,-490.5 387.5,-490.5 387.5,-341.5 255.5,-341.5"/>
</g>
<!-- CuentaCliente -->
<g id="node5" class="node">
<title>CuentaCliente</title>
<polygon fill="lightgrey" stroke="transparent" points="17,-591 17,-612 165,-612 165,-591 17,-591"/>
<polygon fill="none" stroke="black" points="17,-591 17,-612 165,-612 165,-591 17,-591"/>
<text text-anchor="start" x="33.5" y="-598.8" font-family="Times,serif" font-weight="bold" font-size="14.00">CuentaCliente</text>
<polygon fill="none" stroke="black" points="17,-570 17,-591 165,-591 165,-570 17,-570"/>
<text text-anchor="start" x="20" y="-576.8" font-family="Times,serif" font-size="14.00">IdCuentaCliente PK</text>
<polygon fill="none" stroke="black" points="17,-549 17,-570 165,-570 165,-549 17,-549"/>
<text text-anchor="start" x="20" y="-555.8" font-family="Times,serif" font-size="14.00">TipoDeTitular</text>
<polygon fill="none" stroke="black" points="17,-528 17,-549 165,-549 165,-528 17,-528"/>
<text text-anchor="start" x="20" y="-534.8" font-family="Times,serif" font-size="14.00">FkCuenta FK</text>
<polygon fill="none" stroke="black" points="17,-507 17,-528 165,-528 165,-507 17,-507"/>
<text text-anchor="start" x="20" y="-513.8" font-family="Times,serif" font-size="14.00">FkCliente FK</text>
<polygon fill="none" stroke="black" points="17,-486 17,-507 165,-507 165,-486 17,-486"/>
<text text-anchor="start" x="20" y="-492.8" font-family="Times,serif" font-size="14.00">FkTipoCuenta FK</text>
<polygon fill="none" stroke="black" points="16,-485 16,-613 166,-613 166,-485 16,-485"/>
</g>
<!-- CuentaCliente&#45;&gt;TipoCuenta -->
<g id="edge4" class="edge">
<title>CuentaCliente&#45;&gt;TipoCuenta</title>
<path fill="none" stroke="black" d="M184.3,-553.44C202.29,-554.31 221.03,-555.21 238.65,-556.06"/>
<polygon fill="black" stroke="black" points="184.16,-553.44 174.39,-548.46 179.17,-553.2 174.17,-552.96 174.17,-552.96 174.17,-552.96 179.17,-553.2 173.95,-557.45 184.16,-553.44 184.16,-553.44"/>
<polygon fill="black" stroke="black" points="238.9,-556.07 248.67,-561.05 243.89,-556.31 248.89,-556.55 248.89,-556.55 248.89,-556.55 243.89,-556.31 249.1,-552.06 238.9,-556.07 238.9,-556.07"/>
<text text-anchor="middle" x="234.89" y="-545.35" font-family="Times,serif" font-size="14.00">1..1</text>
<text text-anchor="middle" x="186.67" y="-541.76" font-family="Times,serif" font-size="14.00">1..*</text>
</g>
<!-- CuentaCliente&#45;&gt;Cuenta -->
<g id="edge2" class="edge">
<title>CuentaCliente&#45;&gt;Cuenta</title>
<path fill="none" stroke="black" d="M182.94,-606.31C203.95,-619.55 226.05,-633.48 246.25,-646.21"/>
<polygon fill="black" stroke="black" points="182.63,-606.12 176.57,-596.98 178.4,-603.45 174.17,-600.78 174.17,-600.78 174.17,-600.78 178.4,-603.45 171.77,-604.59 182.63,-606.12 182.63,-606.12"/>
<polygon fill="black" stroke="black" points="246.32,-646.25 252.38,-655.39 250.55,-648.92 254.78,-651.58 254.78,-651.58 254.78,-651.58 250.55,-648.92 257.18,-647.78 246.32,-646.25 246.32,-646.25"/>
<text text-anchor="middle" x="240.78" y="-640.38" font-family="Times,serif" font-size="14.00">1..1</text>
<text text-anchor="middle" x="186.67" y="-589.58" font-family="Times,serif" font-size="14.00">1..*</text>
</g>
<!-- CuentaCliente&#45;&gt;Cliente -->
<g id="edge3" class="edge">
<title>CuentaCliente&#45;&gt;Cliente</title>
<path fill="none" stroke="black" d="M182.94,-496.07C201.34,-485.36 220.57,-474.16 238.63,-463.65"/>
<polygon fill="black" stroke="black" points="182.81,-496.14 171.91,-497.28 178.49,-498.66 174.17,-501.17 174.17,-501.17 174.17,-501.17 178.49,-498.66 176.43,-505.06 182.81,-496.14 182.81,-496.14"/>
<polygon fill="black" stroke="black" points="238.75,-463.58 249.66,-462.44 243.07,-461.07 247.39,-458.55 247.39,-458.55 247.39,-458.55 243.07,-461.07 245.13,-454.66 238.75,-463.58 238.75,-463.58"/>
<text text-anchor="middle" x="233.39" y="-447.35" font-family="Times,serif" font-size="14.00">1..1</text>
<text text-anchor="middle" x="186.67" y="-489.97" font-family="Times,serif" font-size="14.00">1..*</text>
</g>
<!-- Transaccion -->
<g id="node6" class="node">
<title>Transaccion</title>
<polygon fill="lightgrey" stroke="transparent" points="10,-745 10,-766 173,-766 173,-745 10,-745"/>
<polygon fill="none" stroke="black" points="10,-745 10,-766 173,-766 173,-745 10,-745"/>
<text text-anchor="start" x="43.5" y="-752.8" font-family="Times,serif" font-weight="bold" font-size="14.00">Transaccion</text>
<polygon fill="none" stroke="black" points="10,-724 10,-745 173,-745 173,-724 10,-724"/>
<text text-anchor="start" x="13" y="-730.8" font-family="Times,serif" font-size="14.00">IdTransaccion PK</text>
<polygon fill="none" stroke="black" points="10,-703 10,-724 173,-724 173,-703 10,-703"/>
<text text-anchor="start" x="13" y="-709.8" font-family="Times,serif" font-size="14.00">FechaTransaccion</text>
<polygon fill="none" stroke="black" points="10,-682 10,-703 173,-703 173,-682 10,-682"/>
<text text-anchor="start" x="13" y="-688.8" font-family="Times,serif" font-size="14.00">ValorTransaccion</text>
<polygon fill="none" stroke="black" points="10,-661 10,-682 173,-682 173,-661 10,-661"/>
<text text-anchor="start" x="13" y="-667.8" font-family="Times,serif" font-size="14.00">FkCuentaDeposito FK</text>
<polygon fill="none" stroke="black" points="10,-640 10,-661 173,-661 173,-640 10,-640"/>
<text text-anchor="start" x="13" y="-646.8" font-family="Times,serif" font-size="14.00">FkCuentaRetiro FK</text>
<polygon fill="none" stroke="black" points="8.5,-639 8.5,-767 173.5,-767 173.5,-639 8.5,-639"/>
</g>
<!-- Transaccion&#45;&gt;Cuenta -->
<g id="edge5" class="edge">
<title>Transaccion&#45;&gt;Cuenta</title>
<path fill="none" stroke="black" d="M191.73,-698.64C209.4,-697.86 227.55,-697.07 244.43,-696.33"/>
<polygon fill="black" stroke="black" points="191.64,-698.64 181.46,-694.58 186.65,-698.86 181.65,-699.08 181.65,-699.08 181.65,-699.08 186.65,-698.86 181.85,-703.57 191.64,-698.64 191.64,-698.64"/>
<polygon fill="black" stroke="black" points="244.78,-696.31 254.97,-700.37 249.78,-696.1 254.77,-695.88 254.77,-695.88 254.77,-695.88 249.78,-696.1 254.57,-691.38 244.78,-696.31 244.78,-696.31"/>
<text text-anchor="middle" x="240.77" y="-684.68" font-family="Times,serif" font-size="14.00">1..1</text>
<text text-anchor="middle" x="194.15" y="-687.88" font-family="Times,serif" font-size="14.00">1..*</text>
</g>
<!-- Pais -->
<g id="node7" class="node">
<title>Pais</title>
<polygon fill="lightgrey" stroke="transparent" points="663.5,-68 663.5,-89 754.5,-89 754.5,-68 663.5,-68"/>
<polygon fill="none" stroke="black" points="663.5,-68 663.5,-89 754.5,-89 754.5,-68 663.5,-68"/>
<text text-anchor="start" x="692" y="-75.8" font-family="Times,serif" font-weight="bold" font-size="14.00">Pais</text>
<polygon fill="none" stroke="black" points="663.5,-47 663.5,-68 754.5,-68 754.5,-47 663.5,-47"/>
<text text-anchor="start" x="666.5" y="-53.8" font-family="Times,serif" font-size="14.00">IdPais PK</text>
<polygon fill="none" stroke="black" points="663.5,-26 663.5,-47 754.5,-47 754.5,-26 663.5,-26"/>
<text text-anchor="start" x="666.5" y="-32.8" font-family="Times,serif" font-size="14.00">Pais</text>
<polygon fill="none" stroke="black" points="663.5,-5 663.5,-26 754.5,-26 754.5,-5 663.5,-5"/>
<text text-anchor="start" x="666.5" y="-11.8" font-family="Times,serif" font-size="14.00">Abreviacion</text>
<polygon fill="none" stroke="black" points="662,-4 662,-90 755,-90 755,-4 662,-4"/>
</g>
<!-- Ciudad -->
<g id="node8" class="node">
<title>Ciudad</title>
<polygon fill="lightgrey" stroke="transparent" points="491.5,-68 491.5,-89 587.5,-89 587.5,-68 491.5,-68"/>
<polygon fill="none" stroke="black" points="491.5,-68 491.5,-89 587.5,-89 587.5,-68 491.5,-68"/>
<text text-anchor="start" x="511.5" y="-75.8" font-family="Times,serif" font-weight="bold" font-size="14.00">Ciudad</text>
<polygon fill="none" stroke="black" points="491.5,-47 491.5,-68 587.5,-68 587.5,-47 491.5,-47"/>
<text text-anchor="start" x="494.5" y="-53.8" font-family="Times,serif" font-size="14.00">IdCiudad PK</text>
<polygon fill="none" stroke="black" points="491.5,-26 491.5,-47 587.5,-47 587.5,-26 491.5,-26"/>
<text text-anchor="start" x="494.5" y="-32.8" font-family="Times,serif" font-size="14.00">Ciudad</text>
<polygon fill="none" stroke="black" points="491.5,-5 491.5,-26 587.5,-26 587.5,-5 491.5,-5"/>
<text text-anchor="start" x="494.5" y="-11.8" font-family="Times,serif" font-size="14.00">FkPais FK</text>
<polygon fill="none" stroke="black" points="490.5,-4 490.5,-90 588.5,-90 588.5,-4 490.5,-4"/>
</g>
<!-- Ciudad&#45;&gt;Pais -->
<g id="edge6" class="edge">
<title>Ciudad&#45;&gt;Pais</title>
<path fill="none" stroke="black" d="M606.7,-47C618.92,-47 631.66,-47 643.8,-47"/>
<polygon fill="black" stroke="black" points="606.57,-47 596.57,-42.5 601.57,-47 596.57,-47 596.57,-47 596.57,-47 601.57,-47 596.57,-51.5 606.57,-47 606.57,-47"/>
<polygon fill="black" stroke="black" points="643.84,-47 653.84,-51.5 648.84,-47 653.84,-47 653.84,-47 653.84,-47 648.84,-47 653.84,-42.5 643.84,-47 643.84,-47"/>
<text text-anchor="middle" x="639.84" y="-35.8" font-family="Times,serif" font-size="14.00">1..1</text>
<text text-anchor="middle" x="609.07" y="-35.8" font-family="Times,serif" font-size="14.00">1..*</text>
</g>
<!-- CodigoPostal -->
<g id="node9" class="node">
<title>CodigoPostal</title>
<polygon fill="lightgrey" stroke="transparent" points="470.5,-159 470.5,-180 609.5,-180 609.5,-159 470.5,-159"/>
<polygon fill="none" stroke="black" points="470.5,-159 470.5,-180 609.5,-180 609.5,-159 470.5,-159"/>
<text text-anchor="start" x="488.5" y="-166.8" font-family="Times,serif" font-weight="bold" font-size="14.00">CodigoPostal</text>
<polygon fill="none" stroke="black" points="470.5,-138 470.5,-159 609.5,-159 609.5,-138 470.5,-138"/>
<text text-anchor="start" x="473.5" y="-144.8" font-family="Times,serif" font-size="14.00">IdCodigoPostal PK</text>
<polygon fill="none" stroke="black" points="470.5,-117 470.5,-138 609.5,-138 609.5,-117 470.5,-117"/>
<text text-anchor="start" x="473.5" y="-123.8" font-family="Times,serif" font-size="14.00">CodigoPostal</text>
<polygon fill="none" stroke="black" points="469,-116.5 469,-181.5 610,-181.5 610,-116.5 469,-116.5"/>
</g>
<!-- CodigoPostalCiudad -->
<g id="node10" class="node">
<title>CodigoPostalCiudad</title>
<polygon fill="lightgrey" stroke="transparent" points="227.5,-87 227.5,-108 416.5,-108 416.5,-87 227.5,-87"/>
<polygon fill="none" stroke="black" points="227.5,-87 227.5,-108 416.5,-108 416.5,-87 227.5,-87"/>
<text text-anchor="start" x="242.5" y="-94.8" font-family="Times,serif" font-weight="bold" font-size="14.00">CodigoPostalCiudad</text>
<polygon fill="none" stroke="black" points="227.5,-66 227.5,-87 416.5,-87 416.5,-66 227.5,-66"/>
<text text-anchor="start" x="230.5" y="-72.8" font-family="Times,serif" font-size="14.00">IdCodigoPostalCiudad PK</text>
<polygon fill="none" stroke="black" points="227.5,-45 227.5,-66 416.5,-66 416.5,-45 227.5,-45"/>
<text text-anchor="start" x="230.5" y="-51.8" font-family="Times,serif" font-size="14.00">FkCodigoPostal FK</text>
<polygon fill="none" stroke="black" points="227.5,-24 227.5,-45 416.5,-45 416.5,-24 227.5,-24"/>
<text text-anchor="start" x="230.5" y="-30.8" font-family="Times,serif" font-size="14.00">FkCiudad FK</text>
<polygon fill="none" stroke="black" points="226,-23 226,-109 417,-109 417,-23 226,-23"/>
</g>
<!-- CodigoPostalCiudad&#45;&gt;Ciudad -->
<g id="edge8" class="edge">
<title>CodigoPostalCiudad&#45;&gt;Ciudad</title>
<path fill="none" stroke="black" d="M435.29,-56.08C447.91,-54.97 460.45,-53.87 472.2,-52.83"/>
<polygon fill="black" stroke="black" points="435.08,-56.1 424.73,-52.49 430.1,-56.53 425.12,-56.97 425.12,-56.97 425.12,-56.97 430.1,-56.53 425.52,-61.46 435.08,-56.1 435.08,-56.1"/>
<polygon fill="black" stroke="black" points="472.35,-52.82 482.71,-56.42 477.33,-52.38 482.32,-51.94 482.32,-51.94 482.32,-51.94 477.33,-52.38 481.92,-47.46 472.35,-52.82 472.35,-52.82"/>
<text text-anchor="middle" x="468.32" y="-40.74" font-family="Times,serif" font-size="14.00">1..1</text>
<text text-anchor="middle" x="437.62" y="-45.77" font-family="Times,serif" font-size="14.00">1..*</text>
</g>
<!-- CodigoPostalCiudad&#45;&gt;CodigoPostal -->
<g id="edge7" class="edge">
<title>CodigoPostalCiudad&#45;&gt;CodigoPostal</title>
<path fill="none" stroke="black" d="M434.67,-109.1C440.17,-111.22 445.65,-113.32 451.07,-115.4"/>
<polygon fill="black" stroke="black" points="434.46,-109.02 426.74,-101.23 429.79,-107.23 425.12,-105.43 425.12,-105.43 425.12,-105.43 429.79,-107.23 423.51,-109.63 434.46,-109.02 434.46,-109.02"/>
<polygon fill="black" stroke="black" points="451.38,-115.52 459.1,-123.31 456.05,-117.32 460.72,-119.11 460.72,-119.11 460.72,-119.11 456.05,-117.32 462.33,-114.91 451.38,-115.52 451.38,-115.52"/>
<text text-anchor="middle" x="446.72" y="-122.91" font-family="Times,serif" font-size="14.00">1..1</text>
<text text-anchor="middle" x="437.62" y="-94.23" font-family="Times,serif" font-size="14.00">1..*</text>
</g>
<!-- TipoCalle -->
<g id="node11" class="node">
<title>TipoCalle</title>
<polygon fill="lightgrey" stroke="transparent" points="483.5,-250 483.5,-271 595.5,-271 595.5,-250 483.5,-250"/>
<polygon fill="none" stroke="black" points="483.5,-250 483.5,-271 595.5,-271 595.5,-250 483.5,-250"/>
<text text-anchor="start" x="502" y="-257.8" font-family="Times,serif" font-weight="bold" font-size="14.00">TipoCalle</text>
<polygon fill="none" stroke="black" points="483.5,-229 483.5,-250 595.5,-250 595.5,-229 483.5,-229"/>
<text text-anchor="start" x="486.5" y="-235.8" font-family="Times,serif" font-size="14.00">IdTipoCalle PK</text>
<polygon fill="none" stroke="black" points="483.5,-208 483.5,-229 595.5,-229 595.5,-208 483.5,-208"/>
<text text-anchor="start" x="486.5" y="-214.8" font-family="Times,serif" font-size="14.00">TipoCalle</text>
<polygon fill="none" stroke="black" points="482.5,-207.5 482.5,-272.5 596.5,-272.5 596.5,-207.5 482.5,-207.5"/>
</g>
<!-- Direccion -->
<g id="node12" class="node">
<title>Direccion</title>
<polygon fill="lightgrey" stroke="transparent" points="250.5,-293 250.5,-314 392.5,-314 392.5,-293 250.5,-293"/>
<polygon fill="none" stroke="black" points="250.5,-293 250.5,-314 392.5,-314 392.5,-293 250.5,-293"/>
<text text-anchor="start" x="283.5" y="-300.8" font-family="Times,serif" font-weight="bold" font-size="14.00">Direccion</text>
<polygon fill="none" stroke="black" points="250.5,-272 250.5,-293 392.5,-293 392.5,-272 250.5,-272"/>
<text text-anchor="start" x="253.5" y="-278.8" font-family="Times,serif" font-size="14.00">IdDireccion PK</text>
<polygon fill="none" stroke="black" points="250.5,-251 250.5,-272 392.5,-272 392.5,-251 250.5,-251"/>
<text text-anchor="start" x="253.5" y="-257.8" font-family="Times,serif" font-size="14.00">Nombre</text>
<polygon fill="none" stroke="black" points="250.5,-230 250.5,-251 392.5,-251 392.5,-230 250.5,-230"/>
<text text-anchor="start" x="253.5" y="-236.8" font-family="Times,serif" font-size="14.00">Numero</text>
<polygon fill="none" stroke="black" points="250.5,-209 250.5,-230 392.5,-230 392.5,-209 250.5,-209"/>
<text text-anchor="start" x="253.5" y="-215.8" font-family="Times,serif" font-size="14.00">Piso</text>
<polygon fill="none" stroke="black" points="250.5,-188 250.5,-209 392.5,-209 392.5,-188 250.5,-188"/>
<text text-anchor="start" x="253.5" y="-194.8" font-family="Times,serif" font-size="14.00">Puerta</text>
<polygon fill="none" stroke="black" points="250.5,-167 250.5,-188 392.5,-188 392.5,-167 250.5,-167"/>
<text text-anchor="start" x="253.5" y="-173.8" font-family="Times,serif" font-size="14.00">FkTipoCalle FK</text>
<polygon fill="none" stroke="black" points="250.5,-146 250.5,-167 392.5,-167 392.5,-146 250.5,-146"/>
<text text-anchor="start" x="253.5" y="-152.8" font-family="Times,serif" font-size="14.00">FkCodigoPostal FK</text>
<polygon fill="none" stroke="black" points="249.5,-145 249.5,-315 393.5,-315 393.5,-145 249.5,-145"/>
</g>
<!-- Direccion&#45;&gt;CodigoPostal -->
<g id="edge10" class="edge">
<title>Direccion&#45;&gt;CodigoPostal</title>
<path fill="none" stroke="black" d="M411.28,-196.71C424.48,-191.76 438.08,-186.66 451.25,-181.72"/>
<polygon fill="black" stroke="black" points="411.07,-196.79 400.12,-196.09 406.39,-198.54 401.7,-200.3 401.7,-200.3 401.7,-200.3 406.39,-198.54 403.28,-204.51 411.07,-196.79 411.07,-196.79"/>
<polygon fill="black" stroke="black" points="451.38,-181.67 462.33,-182.37 456.07,-179.91 460.75,-178.16 460.75,-178.16 460.75,-178.16 456.07,-179.91 459.17,-173.94 451.38,-181.67 451.38,-181.67"/>
<text text-anchor="middle" x="446.75" y="-166.96" font-family="Times,serif" font-size="14.00">1..1</text>
<text text-anchor="middle" x="414.2" y="-189.1" font-family="Times,serif" font-size="14.00">1..*</text>
</g>
<!-- Direccion&#45;&gt;TipoCalle -->
<g id="edge9" class="edge">
<title>Direccion&#45;&gt;TipoCalle</title>
<path fill="none" stroke="black" d="M411.92,-234.14C429.31,-234.94 447.35,-235.78 464.19,-236.56"/>
<polygon fill="black" stroke="black" points="411.69,-234.13 401.91,-229.17 406.7,-233.9 401.7,-233.67 401.7,-233.67 401.7,-233.67 406.7,-233.9 401.5,-238.16 411.69,-234.13 411.69,-234.13"/>
<polygon fill="black" stroke="black" points="464.51,-236.57 474.29,-241.53 469.5,-236.81 474.5,-237.04 474.5,-237.04 474.5,-237.04 469.5,-236.81 474.71,-232.54 464.51,-236.57 464.51,-236.57"/>
<text text-anchor="middle" x="460.5" y="-225.84" font-family="Times,serif" font-size="14.00">1..1</text>
<text text-anchor="middle" x="414.2" y="-222.47" font-family="Times,serif" font-size="14.00">1..*</text>
</g>
<!-- ClienteDireccion -->
<g id="node13" class="node">
<title>ClienteDireccion</title>
<polygon fill="lightgrey" stroke="transparent" points="9,-349 9,-370 173,-370 173,-349 9,-349"/>
<polygon fill="none" stroke="black" points="9,-349 9,-370 173,-370 173,-349 9,-349"/>
<text text-anchor="start" x="24.5" y="-356.8" font-family="Times,serif" font-weight="bold" font-size="14.00">ClienteDireccion</text>
<polygon fill="none" stroke="black" points="9,-328 9,-349 173,-349 173,-328 9,-328"/>
<text text-anchor="start" x="12" y="-334.8" font-family="Times,serif" font-size="14.00">IdClienteDireccion PK</text>
<polygon fill="none" stroke="black" points="9,-307 9,-328 173,-328 173,-307 9,-307"/>
<text text-anchor="start" x="12" y="-313.8" font-family="Times,serif" font-size="14.00">FkCliente FK</text>
<polygon fill="none" stroke="black" points="9,-286 9,-307 173,-307 173,-286 9,-286"/>
<text text-anchor="start" x="12" y="-292.8" font-family="Times,serif" font-size="14.00">FkDireccion FK</text>
<polygon fill="none" stroke="black" points="8,-285 8,-371 174,-371 174,-285 8,-285"/>
</g>
<!-- ClienteDireccion&#45;&gt;Cliente -->
<g id="edge11" class="edge">
<title>ClienteDireccion&#45;&gt;Cliente</title>
<path fill="none" stroke="black" d="M191.73,-366.41C207.07,-372.32 222.76,-378.36 237.68,-384.1"/>
<polygon fill="black" stroke="black" points="191.64,-366.37 183.93,-358.58 186.98,-364.58 182.31,-362.78 182.31,-362.78 182.31,-362.78 186.98,-364.58 180.69,-366.98 191.64,-366.37 191.64,-366.37"/>
<polygon fill="black" stroke="black" points="238.03,-384.24 245.74,-392.03 242.7,-386.04 247.36,-387.83 247.36,-387.83 247.36,-387.83 242.7,-386.04 248.98,-383.63 238.03,-384.24 238.03,-384.24"/>
<text text-anchor="middle" x="233.36" y="-376.63" font-family="Times,serif" font-size="14.00">1..1</text>
<text text-anchor="middle" x="194.81" y="-351.58" font-family="Times,serif" font-size="14.00">1..*</text>
</g>
<!-- ClienteDireccion&#45;&gt;Direccion -->
<g id="edge12" class="edge">
<title>ClienteDireccion&#45;&gt;Direccion</title>
<path fill="none" stroke="black" d="M191.96,-285.13C205.22,-279.44 218.74,-273.64 231.79,-268.05"/>
<polygon fill="black" stroke="black" points="191.5,-285.33 180.54,-285.13 186.9,-287.3 182.31,-289.27 182.31,-289.27 182.31,-289.27 186.9,-287.3 184.08,-293.4 191.5,-285.33 191.5,-285.33"/>
<polygon fill="black" stroke="black" points="232.01,-267.95 242.98,-268.14 236.61,-265.98 241.2,-264.01 241.2,-264.01 241.2,-264.01 236.61,-265.98 239.43,-259.87 232.01,-267.95 232.01,-267.95"/>
<text text-anchor="middle" x="227.2" y="-252.81" font-family="Times,serif" font-size="14.00">1..1</text>
<text text-anchor="middle" x="194.81" y="-278.07" font-family="Times,serif" font-size="14.00">1..*</text>
</g>
</g>
</svg>
